<svg xmlns="http://www.w3.org/2000/svg" width="420" height="420" viewBox="0 0 111.125 111.125">
  <!-- Black background circle -->
  <circle cx="55.5625" cy="55.5625" r="55.5625" fill="black" />
  
  <!-- White logo, scaled larger and centered inside circle -->
  <path
    d="M88.265 219.265c1.587 0 2.646-.952 2.646-2.645 0-2.117-1.059-4.022-3.704-6.456s-6.668-4.868-12.171-6.985l-1.376 1.799c4.657 3.28 7.62 6.562 9.737 9.313 2.116 2.646 3.386 4.974 4.868 4.974m9.419-7.408c1.588 0 2.434-.952 2.434-2.646 0-2.222-1.058-4.233-4.021-6.455-2.646-2.117-6.562-4.34-11.96-6.139l-1.375 1.694c4.974 3.386 7.408 5.926 9.842 8.572 2.328 2.646 3.28 4.974 5.08 4.974m-84.666 2.223-2.011.846c.211 2.858.529 4.551 1.058 6.033 1.058 2.646 6.033 7.62 9.208 7.62 2.116 0 4.339-1.905 7.196-2.54 6.033-1.27 36.09-5.61 40.746-5.61 1.058 0 1.693.212 1.27 1.8-6.456 24.765-25.93 47.307-56.303 62.653l1.587 2.328c31.221-11.853 50.165-31.644 61.278-58.102 1.481-3.493 4.55-4.55 4.55-6.88 0-2.963-7.725-8.995-10.9-8.995-1.8 0-2.435 1.588-5.186 2.117-5.08 1.058-38.735 4.656-44.662 4.656-3.81 0-6.032-3.28-7.831-5.926"
    style="
       font-style:normal;
       font-variant:normal;
       font-weight:400;
       font-stretch:normal;
       font-size:105.833px;
       line-height:100%;
       font-family:&quot;Noto Serif CJK JP&quot;;
       -inkscape-font-specification:&quot;Noto Serif CJK JP&quot;;
       text-align:center;
       letter-spacing:0;
       word-spacing:0;
       text-anchor:middle;
       fill:#fff; /* white logo */
       fill-opacity:1;
       stroke:none;
       stroke-width:.264583px;
       stroke-linecap:butt;
       stroke-linejoin:miter;
       stroke-opacity:1
    "
    transform="translate(0 -185.875) scale(0.8) translate(20, 59)"
  />
</svg>
